<svg width="24" height="24" viewBox="0 0 24 24" fill="none" xmlns="http://www.w3.org/2000/svg">
<path opacity="0.4" d="M12.0001 8.25C9.93508 8.25 8.25008 9.935 8.25008 12C8.25008 14.065 9.93508 15.75 12.0001 15.75C14.0651 15.75 15.7501 14.065 15.7501 12C15.7501 9.935 14.0651 8.25 12.0001 8.25Z" fill="#637381"/>
<path d="M22.775 9.43125L21.0375 8.8125C20.82 8.74375 20.6475 8.58125 20.5725 8.36875C20.3875 7.87 20.1575 7.395 19.8875 6.94625C19.7825 6.75 19.77 6.51875 19.86 6.31L20.7375 4.66125C20.925 4.245 20.8125 3.7575 20.475 3.42125L20.58 3.52625L19.6875 2.63375C19.3513 2.29625 18.8625 2.18375 18.4475 2.37125L16.7925 3.25C16.5825 3.34 16.3513 3.3275 16.1563 3.2225C15.705 2.95125 15.2288 2.72125 14.7338 2.53625C14.52 2.46125 14.3575 2.28875 14.29 2.07125L13.6713 0.335C13.5338 -0.11125 13.1125 -0.375 12.6475 -0.375H11.355C10.89 -0.375 10.4688 -0.11125 10.3313 0.335L9.71255 2.07125C9.64505 2.28875 9.48255 2.46125 9.26755 2.53625C8.77255 2.72125 8.29505 2.95125 7.84505 3.2225C7.64755 3.3275 7.41755 3.34 7.20755 3.25L5.55255 2.37125C5.13755 2.18375 4.65005 2.29625 4.31255 2.63375L3.42005 3.52625L3.52505 3.42125C3.18755 3.7575 3.07505 4.245 3.26255 4.66125L4.14255 6.31C4.23255 6.51875 4.22005 6.75 4.11505 6.94625C3.84505 7.395 3.61505 7.87 3.43005 8.36875C3.35505 8.58125 3.18255 8.74375 2.96505 8.8125L1.22755 9.43125C0.781303 9.56875 0.517553 9.99 0.517553 10.455V11.5463C0.517553 12.0113 0.781303 12.4325 1.22755 12.57L2.96505 13.1888C3.18255 13.2575 3.35505 13.42 3.43005 13.6325C3.61505 14.1313 3.84505 14.6063 4.11505 15.055C4.22005 15.2513 4.23255 15.4825 4.14255 15.6913L3.26255 17.34C3.07505 17.7563 3.18755 18.2438 3.52505 18.58L4.41755 19.4725C4.75255 19.81 5.24255 19.9225 5.65755 19.735L7.31255 18.855C7.52255 18.765 7.75255 18.7775 7.94755 18.8825C8.39755 19.1525 8.87505 19.3825 9.36755 19.5675C9.58255 19.6425 9.74505 19.815 9.81255 20.0325L10.4313 21.77C10.5688 22.2163 10.99 22.48 11.455 22.48H12.6463C13.1113 22.48 13.5325 22.2163 13.67 21.77L14.2888 20.0325C14.3563 19.815 14.5188 19.6425 14.7338 19.5675C15.2288 19.3825 15.705 19.1525 16.1563 18.8825C16.3513 18.7775 16.5825 18.765 16.7925 18.855L18.4475 19.735C18.8625 19.9225 19.3513 19.81 19.6875 19.4725L20.58 18.58C20.9175 18.2438 21.03 17.7563 20.8425 17.34L19.9625 15.6913C19.8725 15.4825 19.885 15.2513 19.99 15.055C20.26 14.6063 20.49 14.1313 20.675 13.6325C20.75 13.42 20.9225 13.2575 21.14 13.1888L22.8775 12.57C23.3238 12.4325 23.5875 12.0113 23.5875 11.5463V10.455C23.5875 9.99 23.3238 9.56875 22.775 9.43125ZM12.0001 17.25C9.10508 17.25 6.75008 14.895 6.75008 12C6.75008 9.105 9.10508 6.75 12.0001 6.75C14.8951 6.75 17.2501 9.105 17.2501 12C17.2501 14.895 14.8951 17.25 12.0001 17.25Z" fill="#637381"/>
</svg>